<?xml version="1.0" standalone="no"?>
<!DOCTYPE svg PUBLIC "-//W3C//DTD SVG 20010904//EN"
 "http://www.w3.org/TR/2001/REC-SVG-20010904/DTD/svg10.dtd">
<svg version="1.0" xmlns="http://www.w3.org/2000/svg"
 viewBox="0 0 2600.000000 2600.000000"
 preserveAspectRatio="xMidYMid meet">
<metadata>
Created by potrace 1.15, written by Peter Selinger 2001-2017
</metadata>
<g transform="translate(0.000000,2600.000000) scale(0.100000,-0.100000)"
fill="#000000" stroke="none">
<path d="M12630 20570 c-1704 -70 -3245 -997 -4125 -2480 -305 -515 -525
-1129 -625 -1740 -71 -440 -80 -1013 -24 -1560 196 -1928 1122 -4082 2714
-6315 496 -695 1140 -1494 1688 -2095 214 -234 575 -611 583 -608 28 10 621
648 894 963 1473 1698 2643 3521 3329 5187 381 927 631 1831 736 2663 53 422
75 980 51 1305 -64 879 -335 1685 -808 2409 -521 796 -1274 1442 -2133 1829
-565 255 -1205 412 -1780 437 -255 11 -329 12 -500 5z m426 -2381 c498 -49
960 -267 1315 -619 64 -63 141 -147 173 -187 529 -675 624 -1578 244 -2338
-282 -564 -793 -978 -1401 -1134 -1006 -260 -2051 221 -2508 1154 -153 312
-218 598 -219 952 0 491 140 915 434 1313 95 129 307 340 440 438 442 326 979
475 1522 421z"/>
</g>
</svg>
